<?xml version="1.0" standalone="no"?>
<!DOCTYPE svg PUBLIC "-//W3C//DTD SVG 20010904//EN"
 "http://www.w3.org/TR/2001/REC-SVG-20010904/DTD/svg10.dtd">
<svg version="1.0" xmlns="http://www.w3.org/2000/svg"
 width="600.000000pt" height="600.000000pt" viewBox="0 0 600.000000 600.000000"
 preserveAspectRatio="xMidYMid meet">
<metadata>
Created by potrace 1.14, written by Peter Selinger 2001-2017
</metadata>
<g transform="translate(0.000000,600.000000) scale(0.100000,-0.100000)"
fill="#000000" stroke="none">
<path d="M1666 4485 c-58 -22 -102 -60 -133 -113 l-28 -47 -3 -1060 c-2 -694
1 -1083 8 -1127 45 -294 261 -536 550 -614 90 -25 290 -25 380 0 257 70 458
269 536 531 17 56 18 138 22 1140 2 812 0 1091 -9 1123 -58 211 -344 245 -456
54 l-28 -47 -5 -1076 -5 -1076 -30 -49 c-101 -163 -329 -163 -430 0 l-30 49
-5 1071 c-5 1147 -3 1093 -56 1163 -58 77 -187 113 -278 78z"/>
<path d="M3666 4485 c-58 -22 -102 -60 -133 -113 l-28 -47 -3 -1300 c-2 -976
0 -1311 9 -1343 17 -60 60 -116 116 -149 41 -24 59 -28 123 -28 64 0 82 4 122
28 53 31 94 79 114 134 11 31 13 277 14 1329 0 1407 3 1334 -56 1411 -58 76
-187 113 -278 78z"/>
<path d="M4666 1985 c-92 -35 -153 -114 -163 -208 -22 -216 219 -354 395 -227
143 103 130 326 -24 416 -56 33 -150 41 -208 19z"/>
</g>
</svg>
